<?xml version="1.0" encoding="utf-8"?>
<!-- Generator: Adobe Illustrator 16.0.0, SVG Export Plug-In . SVG Version: 6.00 Build 0)  -->
<!DOCTYPE svg PUBLIC "-//W3C//DTD SVG 1.1//EN" "http://www.w3.org/Graphics/SVG/1.1/DTD/svg11.dtd">
<svg version="1.1" id="Layer_1" xmlns="http://www.w3.org/2000/svg" xmlns:xlink="http://www.w3.org/1999/xlink" x="0px" y="0px"
	 width="180px" height="180px" viewBox="0 0 180 180" enable-background="new 0 0 180 180" xml:space="preserve">
<path fill="#FFFFFF" d="M111.838,90l42.519,42.519c5.858,5.857,5.858,15.355,0,21.213c-2.929,2.929-6.768,4.394-10.606,4.394
	s-7.678-1.465-10.606-4.394l-42.519-42.519l-42.52,42.52c-2.929,2.929-6.768,4.394-10.606,4.394c-3.839,0-7.677-1.464-10.606-4.394
	c-5.858-5.857-5.858-15.355,0-21.213L69.412,90L26.894,47.481c-5.858-5.857-5.858-15.355,0-21.213
	c5.857-5.857,15.355-5.857,21.213,0l42.519,42.52l42.521-42.521c5.857-5.857,15.355-5.859,21.213,0
	c5.858,5.857,5.858,15.355,0,21.213L111.838,90z"/>
</svg>
